<svg width="14" height="11" viewBox="0 0 14 11" fill="none" xmlns="http://www.w3.org/2000/svg">
<path fill-rule="evenodd" clip-rule="evenodd" d="M0 0.5C0 0.367392 0.0526784 0.240214 0.146447 0.146446C0.240215 0.052678 0.367392 0 0.5 0H13.5C13.6326 0 13.7598 0.052678 13.8536 0.146446C13.9473 0.240214 14 0.367392 14 0.5C14 0.632608 13.9473 0.759785 13.8536 0.853553C13.7598 0.947321 13.6326 0.999999 13.5 0.999999H0.5C0.367392 0.999999 0.240215 0.947321 0.146447 0.853553C0.0526784 0.759785 0 0.632608 0 0.5Z" fill="#C8B9FF"/>
<path d="M7.35292 10.3536C7.25915 10.4473 7.13198 10.5 6.99937 10.5C6.86676 10.5 6.73958 10.4473 6.64582 10.3536C6.55205 10.2598 6.49937 10.1326 6.49937 10V4.207L4.35337 6.354C4.25948 6.44789 4.13214 6.50063 3.99937 6.50063C3.86659 6.50063 3.73926 6.44789 3.64537 6.354C3.55148 6.26011 3.49874 6.13278 3.49874 6C3.49874 5.86722 3.55148 5.73989 3.64537 5.646L6.64537 2.646C6.69181 2.59944 6.74699 2.56249 6.80774 2.53729C6.86848 2.51208 6.9336 2.49911 6.99937 2.49911C7.06514 2.49911 7.13026 2.51208 7.191 2.53729C7.25175 2.56249 7.30692 2.59944 7.35337 2.646L10.3534 5.646C10.3999 5.69249 10.4367 5.74768 10.4619 5.80842C10.4871 5.86916 10.5 5.93426 10.5 6C10.5 6.06574 10.4871 6.13084 10.4619 6.19158C10.4367 6.25232 10.3999 6.30751 10.3534 6.354C10.3069 6.40049 10.2517 6.43736 10.191 6.46252C10.1302 6.48768 10.0651 6.50063 9.99937 6.50063C9.93362 6.50063 9.86852 6.48768 9.80779 6.46252C9.74705 6.43736 9.69186 6.40049 9.64537 6.354L7.49937 4.207V10C7.49937 10.1326 7.44669 10.2598 7.35292 10.3536Z" fill="#C8B9FF"/>
</svg>
